<?xml version="1.0" encoding="UTF-8" standalone="no"?>
<!DOCTYPE svg PUBLIC "-//W3C//DTD SVG 1.1//EN"
 "http://www.w3.org/Graphics/SVG/1.1/DTD/svg11.dtd">
<!-- Generated by graphviz version 2.44.1 (20200629.0846)
 -->
<!-- Title: models_diagram Pages: 1 -->
<svg width="850pt" height="160pt"
 viewBox="0.00 0.00 850.34 160.00" xmlns="http://www.w3.org/2000/svg" xmlns:xlink="http://www.w3.org/1999/xlink">
<g id="graph0" class="graph" transform="scale(1 1) rotate(0) translate(4 156)">
<title>models_diagram</title>
<polygon fill="transparent" stroke="transparent" points="-4,4 -4,-156 846.34,-156 846.34,4 -4,4"/>
<!-- Cidade -->
<g id="node1" class="node">
<title>Cidade</title>
<path fill="none" stroke="black" d="M12,-23C12,-23 134,-23 134,-23 140,-23 146,-29 146,-35 146,-35 146,-117 146,-117 146,-123 140,-129 134,-129 134,-129 12,-129 12,-129 6,-129 0,-123 0,-117 0,-117 0,-35 0,-35 0,-29 6,-23 12,-23"/>
<text text-anchor="middle" x="73" y="-113.8" font-family="Times,serif" font-size="14.00">Cidade</text>
<polyline fill="none" stroke="black" points="0,-106 146,-106 "/>
<text text-anchor="start" x="8" y="-90.8" font-family="Times,serif" font-size="14.00">id :bigint(20)</text>
<text text-anchor="start" x="8" y="-75.8" font-family="Times,serif" font-size="14.00">nome :varchar(100)</text>
<text text-anchor="start" x="8" y="-60.8" font-family="Times,serif" font-size="14.00">estado_id :bigint(20)</text>
<text text-anchor="start" x="8" y="-45.8" font-family="Times,serif" font-size="14.00">created_at :datetime(6)</text>
<text text-anchor="start" x="8" y="-30.8" font-family="Times,serif" font-size="14.00">updated_at :datetime(6)</text>
</g>
<!-- Localidade -->
<g id="node2" class="node">
<title>Localidade</title>
<path fill="none" stroke="black" d="M176,-8C176,-8 298,-8 298,-8 304,-8 310,-14 310,-20 310,-20 310,-132 310,-132 310,-138 304,-144 298,-144 298,-144 176,-144 176,-144 170,-144 164,-138 164,-132 164,-132 164,-20 164,-20 164,-14 170,-8 176,-8"/>
<text text-anchor="middle" x="237" y="-128.8" font-family="Times,serif" font-size="14.00">Localidade</text>
<polyline fill="none" stroke="black" points="164,-121 310,-121 "/>
<text text-anchor="start" x="172" y="-105.8" font-family="Times,serif" font-size="14.00">id :bigint(20)</text>
<text text-anchor="start" x="172" y="-90.8" font-family="Times,serif" font-size="14.00">nome :varchar(25)</text>
<text text-anchor="start" x="172" y="-75.8" font-family="Times,serif" font-size="14.00">cidade_id :bigint(20)</text>
<text text-anchor="start" x="172" y="-60.8" font-family="Times,serif" font-size="14.00">lat :float</text>
<text text-anchor="start" x="172" y="-45.8" font-family="Times,serif" font-size="14.00">long :float</text>
<text text-anchor="start" x="172" y="-30.8" font-family="Times,serif" font-size="14.00">created_at :datetime(6)</text>
<text text-anchor="start" x="172" y="-15.8" font-family="Times,serif" font-size="14.00">updated_at :datetime(6)</text>
</g>
<!-- Monitoramento -->
<g id="node3" class="node">
<title>Monitoramento</title>
<path fill="none" stroke="black" d="M340.5,-0.5C340.5,-0.5 493.5,-0.5 493.5,-0.5 499.5,-0.5 505.5,-6.5 505.5,-12.5 505.5,-12.5 505.5,-139.5 505.5,-139.5 505.5,-145.5 499.5,-151.5 493.5,-151.5 493.5,-151.5 340.5,-151.5 340.5,-151.5 334.5,-151.5 328.5,-145.5 328.5,-139.5 328.5,-139.5 328.5,-12.5 328.5,-12.5 328.5,-6.5 334.5,-0.5 340.5,-0.5"/>
<text text-anchor="middle" x="417" y="-136.3" font-family="Times,serif" font-size="14.00">Monitoramento</text>
<polyline fill="none" stroke="black" points="328.5,-128.5 505.5,-128.5 "/>
<text text-anchor="start" x="336.5" y="-113.3" font-family="Times,serif" font-size="14.00">updated_at :datetime(6)</text>
<text text-anchor="start" x="336.5" y="-98.3" font-family="Times,serif" font-size="14.00">temperatura :decimal(10,2)</text>
<text text-anchor="start" x="336.5" y="-83.3" font-family="Times,serif" font-size="14.00">ph :decimal(10,2)</text>
<text text-anchor="start" x="336.5" y="-68.3" font-family="Times,serif" font-size="14.00">turbidez :decimal(10,2)</text>
<text text-anchor="start" x="336.5" y="-53.3" font-family="Times,serif" font-size="14.00">condutividade :decimal(10,2)</text>
<text text-anchor="start" x="336.5" y="-38.3" font-family="Times,serif" font-size="14.00">localidade_id :bigint(20)</text>
<text text-anchor="start" x="336.5" y="-23.3" font-family="Times,serif" font-size="14.00">created_at :datetime(6)</text>
<text text-anchor="start" x="336.5" y="-8.3" font-family="Times,serif" font-size="14.00">id :bigint(20)</text>
</g>
<!-- Estado -->
<g id="node4" class="node">
<title>Estado</title>
<path fill="none" stroke="black" d="M536,-23C536,-23 658,-23 658,-23 664,-23 670,-29 670,-35 670,-35 670,-117 670,-117 670,-123 664,-129 658,-129 658,-129 536,-129 536,-129 530,-129 524,-123 524,-117 524,-117 524,-35 524,-35 524,-29 530,-23 536,-23"/>
<text text-anchor="middle" x="597" y="-113.8" font-family="Times,serif" font-size="14.00">Estado</text>
<polyline fill="none" stroke="black" points="524,-106 670,-106 "/>
<text text-anchor="start" x="532" y="-90.8" font-family="Times,serif" font-size="14.00">id :bigint(20)</text>
<text text-anchor="start" x="532" y="-75.8" font-family="Times,serif" font-size="14.00">uf :varchar(2)</text>
<text text-anchor="start" x="532" y="-60.8" font-family="Times,serif" font-size="14.00">nome :varchar(25)</text>
<text text-anchor="start" x="532" y="-45.8" font-family="Times,serif" font-size="14.00">created_at :datetime(6)</text>
<text text-anchor="start" x="532" y="-30.8" font-family="Times,serif" font-size="14.00">updated_at :datetime(6)</text>
</g>
<!-- ApplicationRecord -->
<g id="node5" class="node">
<title>ApplicationRecord</title>
<ellipse fill="none" stroke="black" cx="765" cy="-76" rx="77.19" ry="18"/>
<text text-anchor="middle" x="765" y="-72.3" font-family="Times,serif" font-size="14.00">ApplicationRecord</text>
</g>
</g>
</svg>
