<?xml version="1.0" encoding="UTF-8" standalone="no"?>
<!DOCTYPE svg PUBLIC "-//W3C//DTD SVG 1.1//EN"
 "http://www.w3.org/Graphics/SVG/1.1/DTD/svg11.dtd">
<!-- Generated by graphviz version 2.44.1 (20200629.0846)
 -->
<!-- Title: controllers_diagram Pages: 1 -->
<svg width="562pt" height="640pt"
 viewBox="0.00 0.00 562.00 640.00" xmlns="http://www.w3.org/2000/svg" xmlns:xlink="http://www.w3.org/1999/xlink">
<g id="graph0" class="graph" transform="scale(1 1) rotate(0) translate(4 636)">
<title>controllers_diagram</title>
<polygon fill="transparent" stroke="transparent" points="-4,4 -4,-636 558,-636 558,4 -4,4"/>
<!-- _diagram_info -->
<g id="node1" class="node">
<title>_diagram_info</title>
<text text-anchor="start" x="179" y="-82.6" font-family="Times,serif" font-size="13.00">Controllers diagram</text>
<text text-anchor="start" x="179" y="-68.6" font-family="Times,serif" font-size="13.00">Date: Sep 18 2020 &#45; 23:55</text>
<text text-anchor="start" x="179" y="-54.6" font-family="Times,serif" font-size="13.00">Migration version: 20200919024028</text>
<text text-anchor="start" x="179" y="-40.6" font-family="Times,serif" font-size="13.00">Generated by RailRoady 1.5.3</text>
<text text-anchor="start" x="179" y="-26.6" font-family="Times,serif" font-size="13.00">http://railroady.prestonlee.com</text>
</g>
<!-- ApplicationController -->
<g id="node2" class="node">
<title>ApplicationController</title>
<path fill="none" stroke="black" d="M430,-0.5C430,-0.5 542,-0.5 542,-0.5 548,-0.5 554,-6.5 554,-12.5 554,-12.5 554,-82.5 554,-82.5 554,-88.5 548,-94.5 542,-94.5 542,-94.5 430,-94.5 430,-94.5 424,-94.5 418,-88.5 418,-82.5 418,-82.5 418,-12.5 418,-12.5 418,-6.5 424,-0.5 430,-0.5"/>
<text text-anchor="middle" x="486" y="-79.3" font-family="Times,serif" font-size="14.00">ApplicationController</text>
<polyline fill="none" stroke="black" points="418,-71.5 554,-71.5 "/>
<polyline fill="none" stroke="black" points="418,-47.5 554,-47.5 "/>
<polyline fill="none" stroke="black" points="418,-23.5 554,-23.5 "/>
<text text-anchor="start" x="426" y="-8.3" font-family="Times,serif" font-size="14.00">_layout</text>
</g>
<!-- EstadosController -->
<g id="node3" class="node">
<title>EstadosController</title>
<path fill="none" stroke="black" d="M164,-380.5C164,-380.5 254,-380.5 254,-380.5 260,-380.5 266,-386.5 266,-392.5 266,-392.5 266,-581.5 266,-581.5 266,-587.5 260,-593.5 254,-593.5 254,-593.5 164,-593.5 164,-593.5 158,-593.5 152,-587.5 152,-581.5 152,-581.5 152,-392.5 152,-392.5 152,-386.5 158,-380.5 164,-380.5"/>
<text text-anchor="middle" x="209" y="-578.3" font-family="Times,serif" font-size="14.00">EstadosController</text>
<polyline fill="none" stroke="black" points="152,-570.5 266,-570.5 "/>
<text text-anchor="start" x="160" y="-555.3" font-family="Times,serif" font-size="14.00">create</text>
<text text-anchor="start" x="160" y="-540.3" font-family="Times,serif" font-size="14.00">destroy</text>
<text text-anchor="start" x="160" y="-525.3" font-family="Times,serif" font-size="14.00">edit</text>
<text text-anchor="start" x="160" y="-510.3" font-family="Times,serif" font-size="14.00">index</text>
<text text-anchor="start" x="160" y="-495.3" font-family="Times,serif" font-size="14.00">new</text>
<text text-anchor="start" x="160" y="-480.3" font-family="Times,serif" font-size="14.00">show</text>
<text text-anchor="start" x="160" y="-465.3" font-family="Times,serif" font-size="14.00">update</text>
<polyline fill="none" stroke="black" points="152,-457.5 266,-457.5 "/>
<polyline fill="none" stroke="black" points="152,-433.5 266,-433.5 "/>
<text text-anchor="start" x="160" y="-418.3" font-family="Times,serif" font-size="14.00">_layout</text>
<text text-anchor="start" x="160" y="-403.3" font-family="Times,serif" font-size="14.00">estado_params</text>
<text text-anchor="start" x="160" y="-388.3" font-family="Times,serif" font-size="14.00">set_estado</text>
</g>
<!-- LocalidadesController -->
<g id="node4" class="node">
<title>LocalidadesController</title>
<path fill="none" stroke="black" d="M297,-133.5C297,-133.5 410,-133.5 410,-133.5 416,-133.5 422,-139.5 422,-145.5 422,-145.5 422,-334.5 422,-334.5 422,-340.5 416,-346.5 410,-346.5 410,-346.5 297,-346.5 297,-346.5 291,-346.5 285,-340.5 285,-334.5 285,-334.5 285,-145.5 285,-145.5 285,-139.5 291,-133.5 297,-133.5"/>
<text text-anchor="middle" x="353.5" y="-331.3" font-family="Times,serif" font-size="14.00">LocalidadesController</text>
<polyline fill="none" stroke="black" points="285,-323.5 422,-323.5 "/>
<text text-anchor="start" x="293" y="-308.3" font-family="Times,serif" font-size="14.00">create</text>
<text text-anchor="start" x="293" y="-293.3" font-family="Times,serif" font-size="14.00">destroy</text>
<text text-anchor="start" x="293" y="-278.3" font-family="Times,serif" font-size="14.00">edit</text>
<text text-anchor="start" x="293" y="-263.3" font-family="Times,serif" font-size="14.00">index</text>
<text text-anchor="start" x="293" y="-248.3" font-family="Times,serif" font-size="14.00">new</text>
<text text-anchor="start" x="293" y="-233.3" font-family="Times,serif" font-size="14.00">show</text>
<text text-anchor="start" x="293" y="-218.3" font-family="Times,serif" font-size="14.00">update</text>
<polyline fill="none" stroke="black" points="285,-210.5 422,-210.5 "/>
<polyline fill="none" stroke="black" points="285,-186.5 422,-186.5 "/>
<text text-anchor="start" x="293" y="-171.3" font-family="Times,serif" font-size="14.00">_layout</text>
<text text-anchor="start" x="293" y="-156.3" font-family="Times,serif" font-size="14.00">localidade_params</text>
<text text-anchor="start" x="293" y="-141.3" font-family="Times,serif" font-size="14.00">set_localidade</text>
</g>
<!-- CidadesController -->
<g id="node5" class="node">
<title>CidadesController</title>
<path fill="none" stroke="black" d="M12,-418.5C12,-418.5 104,-418.5 104,-418.5 110,-418.5 116,-424.5 116,-430.5 116,-430.5 116,-619.5 116,-619.5 116,-625.5 110,-631.5 104,-631.5 104,-631.5 12,-631.5 12,-631.5 6,-631.5 0,-625.5 0,-619.5 0,-619.5 0,-430.5 0,-430.5 0,-424.5 6,-418.5 12,-418.5"/>
<text text-anchor="middle" x="58" y="-616.3" font-family="Times,serif" font-size="14.00">CidadesController</text>
<polyline fill="none" stroke="black" points="0,-608.5 116,-608.5 "/>
<text text-anchor="start" x="8" y="-593.3" font-family="Times,serif" font-size="14.00">create</text>
<text text-anchor="start" x="8" y="-578.3" font-family="Times,serif" font-size="14.00">destroy</text>
<text text-anchor="start" x="8" y="-563.3" font-family="Times,serif" font-size="14.00">edit</text>
<text text-anchor="start" x="8" y="-548.3" font-family="Times,serif" font-size="14.00">index</text>
<text text-anchor="start" x="8" y="-533.3" font-family="Times,serif" font-size="14.00">new</text>
<text text-anchor="start" x="8" y="-518.3" font-family="Times,serif" font-size="14.00">show</text>
<text text-anchor="start" x="8" y="-503.3" font-family="Times,serif" font-size="14.00">update</text>
<polyline fill="none" stroke="black" points="0,-495.5 116,-495.5 "/>
<polyline fill="none" stroke="black" points="0,-471.5 116,-471.5 "/>
<text text-anchor="start" x="8" y="-456.3" font-family="Times,serif" font-size="14.00">_layout</text>
<text text-anchor="start" x="8" y="-441.3" font-family="Times,serif" font-size="14.00">cidade_params</text>
<text text-anchor="start" x="8" y="-426.3" font-family="Times,serif" font-size="14.00">set_cidade</text>
</g>
<!-- ControladorsController -->
<g id="node6" class="node">
<title>ControladorsController</title>
<path fill="none" stroke="black" d="M316,-380.5C316,-380.5 435,-380.5 435,-380.5 441,-380.5 447,-386.5 447,-392.5 447,-392.5 447,-581.5 447,-581.5 447,-587.5 441,-593.5 435,-593.5 435,-593.5 316,-593.5 316,-593.5 310,-593.5 304,-587.5 304,-581.5 304,-581.5 304,-392.5 304,-392.5 304,-386.5 310,-380.5 316,-380.5"/>
<text text-anchor="middle" x="375.5" y="-578.3" font-family="Times,serif" font-size="14.00">ControladorsController</text>
<polyline fill="none" stroke="black" points="304,-570.5 447,-570.5 "/>
<text text-anchor="start" x="312" y="-555.3" font-family="Times,serif" font-size="14.00">create</text>
<text text-anchor="start" x="312" y="-540.3" font-family="Times,serif" font-size="14.00">destroy</text>
<text text-anchor="start" x="312" y="-525.3" font-family="Times,serif" font-size="14.00">edit</text>
<text text-anchor="start" x="312" y="-510.3" font-family="Times,serif" font-size="14.00">index</text>
<text text-anchor="start" x="312" y="-495.3" font-family="Times,serif" font-size="14.00">new</text>
<text text-anchor="start" x="312" y="-480.3" font-family="Times,serif" font-size="14.00">show</text>
<text text-anchor="start" x="312" y="-465.3" font-family="Times,serif" font-size="14.00">update</text>
<polyline fill="none" stroke="black" points="304,-457.5 447,-457.5 "/>
<polyline fill="none" stroke="black" points="304,-433.5 447,-433.5 "/>
<text text-anchor="start" x="312" y="-418.3" font-family="Times,serif" font-size="14.00">_layout</text>
<text text-anchor="start" x="312" y="-403.3" font-family="Times,serif" font-size="14.00">controlador_params</text>
<text text-anchor="start" x="312" y="-388.3" font-family="Times,serif" font-size="14.00">set_controlador</text>
</g>
<!-- MonitoramentosController -->
<g id="node7" class="node">
<title>MonitoramentosController</title>
<path fill="none" stroke="black" d="M88,-133.5C88,-133.5 227,-133.5 227,-133.5 233,-133.5 239,-139.5 239,-145.5 239,-145.5 239,-334.5 239,-334.5 239,-340.5 233,-346.5 227,-346.5 227,-346.5 88,-346.5 88,-346.5 82,-346.5 76,-340.5 76,-334.5 76,-334.5 76,-145.5 76,-145.5 76,-139.5 82,-133.5 88,-133.5"/>
<text text-anchor="middle" x="157.5" y="-331.3" font-family="Times,serif" font-size="14.00">MonitoramentosController</text>
<polyline fill="none" stroke="black" points="76,-323.5 239,-323.5 "/>
<text text-anchor="start" x="84" y="-308.3" font-family="Times,serif" font-size="14.00">create</text>
<text text-anchor="start" x="84" y="-293.3" font-family="Times,serif" font-size="14.00">destroy</text>
<text text-anchor="start" x="84" y="-278.3" font-family="Times,serif" font-size="14.00">edit</text>
<text text-anchor="start" x="84" y="-263.3" font-family="Times,serif" font-size="14.00">index</text>
<text text-anchor="start" x="84" y="-248.3" font-family="Times,serif" font-size="14.00">new</text>
<text text-anchor="start" x="84" y="-233.3" font-family="Times,serif" font-size="14.00">show</text>
<text text-anchor="start" x="84" y="-218.3" font-family="Times,serif" font-size="14.00">update</text>
<polyline fill="none" stroke="black" points="76,-210.5 239,-210.5 "/>
<polyline fill="none" stroke="black" points="76,-186.5 239,-186.5 "/>
<text text-anchor="start" x="84" y="-171.3" font-family="Times,serif" font-size="14.00">_layout</text>
<text text-anchor="start" x="84" y="-156.3" font-family="Times,serif" font-size="14.00">monitoramento_params</text>
<text text-anchor="start" x="84" y="-141.3" font-family="Times,serif" font-size="14.00">set_monitoramento</text>
</g>
</g>
</svg>
