<?xml version="1.0" encoding="UTF-8" standalone="no"?>
<!DOCTYPE svg PUBLIC "-//W3C//DTD SVG 1.1//EN"
 "http://www.w3.org/Graphics/SVG/1.1/DTD/svg11.dtd">
<!-- Generated by graphviz version 2.44.1 (20200629.0846)
 -->
<!-- Title: controllers_diagram Pages: 1 -->
<svg width="446pt" height="582pt"
 viewBox="0.00 0.00 446.00 582.00" xmlns="http://www.w3.org/2000/svg" xmlns:xlink="http://www.w3.org/1999/xlink">
<g id="graph0" class="graph" transform="scale(1 1) rotate(0) translate(4 578)">
<title>controllers_diagram</title>
<polygon fill="transparent" stroke="transparent" points="-4,4 -4,-578 442,-578 442,4 -4,4"/>
<!-- _diagram_info -->
<g id="node1" class="node">
<title>_diagram_info</title>
<text text-anchor="start" x="188" y="-63.6" font-family="Times,serif" font-size="13.00">Controllers diagram</text>
<text text-anchor="start" x="188" y="-49.6" font-family="Times,serif" font-size="13.00">Date: Sep 19 2020 &#45; 01:39</text>
<text text-anchor="start" x="188" y="-35.6" font-family="Times,serif" font-size="13.00">Migration version: 20200919024028</text>
<text text-anchor="start" x="188" y="-21.6" font-family="Times,serif" font-size="13.00">Generated by RailRoady 1.5.3</text>
<text text-anchor="start" x="188" y="-7.6" font-family="Times,serif" font-size="13.00">http://railroady.prestonlee.com</text>
</g>
<!-- ApplicationController -->
<g id="node2" class="node">
<title>ApplicationController</title>
<path fill="none" stroke="black" d="M12,-396.5C12,-396.5 124,-396.5 124,-396.5 130,-396.5 136,-402.5 136,-408.5 136,-408.5 136,-478.5 136,-478.5 136,-484.5 130,-490.5 124,-490.5 124,-490.5 12,-490.5 12,-490.5 6,-490.5 0,-484.5 0,-478.5 0,-478.5 0,-408.5 0,-408.5 0,-402.5 6,-396.5 12,-396.5"/>
<text text-anchor="middle" x="68" y="-475.3" font-family="Times,serif" font-size="14.00">ApplicationController</text>
<polyline fill="none" stroke="black" points="0,-467.5 136,-467.5 "/>
<polyline fill="none" stroke="black" points="0,-443.5 136,-443.5 "/>
<polyline fill="none" stroke="black" points="0,-419.5 136,-419.5 "/>
<text text-anchor="start" x="8" y="-404.3" font-family="Times,serif" font-size="14.00">_layout</text>
</g>
<!-- EstadosController -->
<g id="node3" class="node">
<title>EstadosController</title>
<path fill="none" stroke="black" d="M336,-360.5C336,-360.5 426,-360.5 426,-360.5 432,-360.5 438,-366.5 438,-372.5 438,-372.5 438,-561.5 438,-561.5 438,-567.5 432,-573.5 426,-573.5 426,-573.5 336,-573.5 336,-573.5 330,-573.5 324,-567.5 324,-561.5 324,-561.5 324,-372.5 324,-372.5 324,-366.5 330,-360.5 336,-360.5"/>
<text text-anchor="middle" x="381" y="-558.3" font-family="Times,serif" font-size="14.00">EstadosController</text>
<polyline fill="none" stroke="black" points="324,-550.5 438,-550.5 "/>
<text text-anchor="start" x="332" y="-535.3" font-family="Times,serif" font-size="14.00">create</text>
<text text-anchor="start" x="332" y="-520.3" font-family="Times,serif" font-size="14.00">destroy</text>
<text text-anchor="start" x="332" y="-505.3" font-family="Times,serif" font-size="14.00">edit</text>
<text text-anchor="start" x="332" y="-490.3" font-family="Times,serif" font-size="14.00">index</text>
<text text-anchor="start" x="332" y="-475.3" font-family="Times,serif" font-size="14.00">new</text>
<text text-anchor="start" x="332" y="-460.3" font-family="Times,serif" font-size="14.00">show</text>
<text text-anchor="start" x="332" y="-445.3" font-family="Times,serif" font-size="14.00">update</text>
<polyline fill="none" stroke="black" points="324,-437.5 438,-437.5 "/>
<polyline fill="none" stroke="black" points="324,-413.5 438,-413.5 "/>
<text text-anchor="start" x="332" y="-398.3" font-family="Times,serif" font-size="14.00">_layout</text>
<text text-anchor="start" x="332" y="-383.3" font-family="Times,serif" font-size="14.00">estado_params</text>
<text text-anchor="start" x="332" y="-368.3" font-family="Times,serif" font-size="14.00">set_estado</text>
</g>
<!-- LocalidadesController -->
<g id="node4" class="node">
<title>LocalidadesController</title>
<path fill="none" stroke="black" d="M300,-108.5C300,-108.5 413,-108.5 413,-108.5 419,-108.5 425,-114.5 425,-120.5 425,-120.5 425,-309.5 425,-309.5 425,-315.5 419,-321.5 413,-321.5 413,-321.5 300,-321.5 300,-321.5 294,-321.5 288,-315.5 288,-309.5 288,-309.5 288,-120.5 288,-120.5 288,-114.5 294,-108.5 300,-108.5"/>
<text text-anchor="middle" x="356.5" y="-306.3" font-family="Times,serif" font-size="14.00">LocalidadesController</text>
<polyline fill="none" stroke="black" points="288,-298.5 425,-298.5 "/>
<text text-anchor="start" x="296" y="-283.3" font-family="Times,serif" font-size="14.00">create</text>
<text text-anchor="start" x="296" y="-268.3" font-family="Times,serif" font-size="14.00">destroy</text>
<text text-anchor="start" x="296" y="-253.3" font-family="Times,serif" font-size="14.00">edit</text>
<text text-anchor="start" x="296" y="-238.3" font-family="Times,serif" font-size="14.00">index</text>
<text text-anchor="start" x="296" y="-223.3" font-family="Times,serif" font-size="14.00">new</text>
<text text-anchor="start" x="296" y="-208.3" font-family="Times,serif" font-size="14.00">show</text>
<text text-anchor="start" x="296" y="-193.3" font-family="Times,serif" font-size="14.00">update</text>
<polyline fill="none" stroke="black" points="288,-185.5 425,-185.5 "/>
<polyline fill="none" stroke="black" points="288,-161.5 425,-161.5 "/>
<text text-anchor="start" x="296" y="-146.3" font-family="Times,serif" font-size="14.00">_layout</text>
<text text-anchor="start" x="296" y="-131.3" font-family="Times,serif" font-size="14.00">localidade_params</text>
<text text-anchor="start" x="296" y="-116.3" font-family="Times,serif" font-size="14.00">set_localidade</text>
</g>
<!-- CidadesController -->
<g id="node5" class="node">
<title>CidadesController</title>
<path fill="none" stroke="black" d="M192,-360.5C192,-360.5 284,-360.5 284,-360.5 290,-360.5 296,-366.5 296,-372.5 296,-372.5 296,-561.5 296,-561.5 296,-567.5 290,-573.5 284,-573.5 284,-573.5 192,-573.5 192,-573.5 186,-573.5 180,-567.5 180,-561.5 180,-561.5 180,-372.5 180,-372.5 180,-366.5 186,-360.5 192,-360.5"/>
<text text-anchor="middle" x="238" y="-558.3" font-family="Times,serif" font-size="14.00">CidadesController</text>
<polyline fill="none" stroke="black" points="180,-550.5 296,-550.5 "/>
<text text-anchor="start" x="188" y="-535.3" font-family="Times,serif" font-size="14.00">create</text>
<text text-anchor="start" x="188" y="-520.3" font-family="Times,serif" font-size="14.00">destroy</text>
<text text-anchor="start" x="188" y="-505.3" font-family="Times,serif" font-size="14.00">edit</text>
<text text-anchor="start" x="188" y="-490.3" font-family="Times,serif" font-size="14.00">index</text>
<text text-anchor="start" x="188" y="-475.3" font-family="Times,serif" font-size="14.00">new</text>
<text text-anchor="start" x="188" y="-460.3" font-family="Times,serif" font-size="14.00">show</text>
<text text-anchor="start" x="188" y="-445.3" font-family="Times,serif" font-size="14.00">update</text>
<polyline fill="none" stroke="black" points="180,-437.5 296,-437.5 "/>
<polyline fill="none" stroke="black" points="180,-413.5 296,-413.5 "/>
<text text-anchor="start" x="188" y="-398.3" font-family="Times,serif" font-size="14.00">_layout</text>
<text text-anchor="start" x="188" y="-383.3" font-family="Times,serif" font-size="14.00">cidade_params</text>
<text text-anchor="start" x="188" y="-368.3" font-family="Times,serif" font-size="14.00">set_cidade</text>
</g>
<!-- MonitoramentosController -->
<g id="node6" class="node">
<title>MonitoramentosController</title>
<path fill="none" stroke="black" d="M102,-108.5C102,-108.5 241,-108.5 241,-108.5 247,-108.5 253,-114.5 253,-120.5 253,-120.5 253,-309.5 253,-309.5 253,-315.5 247,-321.5 241,-321.5 241,-321.5 102,-321.5 102,-321.5 96,-321.5 90,-315.5 90,-309.5 90,-309.5 90,-120.5 90,-120.5 90,-114.5 96,-108.5 102,-108.5"/>
<text text-anchor="middle" x="171.5" y="-306.3" font-family="Times,serif" font-size="14.00">MonitoramentosController</text>
<polyline fill="none" stroke="black" points="90,-298.5 253,-298.5 "/>
<text text-anchor="start" x="98" y="-283.3" font-family="Times,serif" font-size="14.00">create</text>
<text text-anchor="start" x="98" y="-268.3" font-family="Times,serif" font-size="14.00">destroy</text>
<text text-anchor="start" x="98" y="-253.3" font-family="Times,serif" font-size="14.00">edit</text>
<text text-anchor="start" x="98" y="-238.3" font-family="Times,serif" font-size="14.00">index</text>
<text text-anchor="start" x="98" y="-223.3" font-family="Times,serif" font-size="14.00">new</text>
<text text-anchor="start" x="98" y="-208.3" font-family="Times,serif" font-size="14.00">show</text>
<text text-anchor="start" x="98" y="-193.3" font-family="Times,serif" font-size="14.00">update</text>
<polyline fill="none" stroke="black" points="90,-185.5 253,-185.5 "/>
<polyline fill="none" stroke="black" points="90,-161.5 253,-161.5 "/>
<text text-anchor="start" x="98" y="-146.3" font-family="Times,serif" font-size="14.00">_layout</text>
<text text-anchor="start" x="98" y="-131.3" font-family="Times,serif" font-size="14.00">monitoramento_params</text>
<text text-anchor="start" x="98" y="-116.3" font-family="Times,serif" font-size="14.00">set_monitoramento</text>
</g>
</g>
</svg>
