<?xml version="1.0" encoding="UTF-8" standalone="no"?>
<!DOCTYPE svg PUBLIC "-//W3C//DTD SVG 1.1//EN"
 "http://www.w3.org/Graphics/SVG/1.1/DTD/svg11.dtd">
<!-- Generated by graphviz version 2.44.1 (20200629.0846)
 -->
<!-- Title: models_diagram Pages: 1 -->
<svg width="1246pt" height="160pt"
 viewBox="0.00 0.00 1246.34 160.00" xmlns="http://www.w3.org/2000/svg" xmlns:xlink="http://www.w3.org/1999/xlink">
<g id="graph0" class="graph" transform="scale(1 1) rotate(0) translate(4 156)">
<title>models_diagram</title>
<polygon fill="transparent" stroke="transparent" points="-4,4 -4,-156 1242.34,-156 1242.34,4 -4,4"/>
<!-- _diagram_info -->
<g id="node1" class="node">
<title>_diagram_info</title>
<text text-anchor="start" x="8" y="-100.6" font-family="Times,serif" font-size="13.00">Models diagram</text>
<text text-anchor="start" x="8" y="-86.6" font-family="Times,serif" font-size="13.00">Date: Sep 18 2020 &#45; 23:54</text>
<text text-anchor="start" x="8" y="-72.6" font-family="Times,serif" font-size="13.00">Migration version: 20200919024028</text>
<text text-anchor="start" x="8" y="-58.6" font-family="Times,serif" font-size="13.00">Generated by RailRoady 1.5.3</text>
<text text-anchor="start" x="8" y="-44.6" font-family="Times,serif" font-size="13.00">http://railroady.prestonlee.com</text>
</g>
<!-- Cidade -->
<g id="node2" class="node">
<title>Cidade</title>
<path fill="none" stroke="black" d="M244,-23C244,-23 366,-23 366,-23 372,-23 378,-29 378,-35 378,-35 378,-117 378,-117 378,-123 372,-129 366,-129 366,-129 244,-129 244,-129 238,-129 232,-123 232,-117 232,-117 232,-35 232,-35 232,-29 238,-23 244,-23"/>
<text text-anchor="middle" x="305" y="-113.8" font-family="Times,serif" font-size="14.00">Cidade</text>
<polyline fill="none" stroke="black" points="232,-106 378,-106 "/>
<text text-anchor="start" x="240" y="-90.8" font-family="Times,serif" font-size="14.00">id :bigint(20)</text>
<text text-anchor="start" x="240" y="-75.8" font-family="Times,serif" font-size="14.00">nome :varchar(255)</text>
<text text-anchor="start" x="240" y="-60.8" font-family="Times,serif" font-size="14.00">estado_id :bigint(20)</text>
<text text-anchor="start" x="240" y="-45.8" font-family="Times,serif" font-size="14.00">created_at :datetime(6)</text>
<text text-anchor="start" x="240" y="-30.8" font-family="Times,serif" font-size="14.00">updated_at :datetime(6)</text>
</g>
<!-- Localidade -->
<g id="node3" class="node">
<title>Localidade</title>
<path fill="none" stroke="black" d="M408,-8C408,-8 530,-8 530,-8 536,-8 542,-14 542,-20 542,-20 542,-132 542,-132 542,-138 536,-144 530,-144 530,-144 408,-144 408,-144 402,-144 396,-138 396,-132 396,-132 396,-20 396,-20 396,-14 402,-8 408,-8"/>
<text text-anchor="middle" x="469" y="-128.8" font-family="Times,serif" font-size="14.00">Localidade</text>
<polyline fill="none" stroke="black" points="396,-121 542,-121 "/>
<text text-anchor="start" x="404" y="-105.8" font-family="Times,serif" font-size="14.00">id :bigint(20)</text>
<text text-anchor="start" x="404" y="-90.8" font-family="Times,serif" font-size="14.00">nome :varchar(255)</text>
<text text-anchor="start" x="404" y="-75.8" font-family="Times,serif" font-size="14.00">cidade_id :bigint(20)</text>
<text text-anchor="start" x="404" y="-60.8" font-family="Times,serif" font-size="14.00">lat :decimal(10,0)</text>
<text text-anchor="start" x="404" y="-45.8" font-family="Times,serif" font-size="14.00">long :decimal(10,0)</text>
<text text-anchor="start" x="404" y="-30.8" font-family="Times,serif" font-size="14.00">created_at :datetime(6)</text>
<text text-anchor="start" x="404" y="-15.8" font-family="Times,serif" font-size="14.00">updated_at :datetime(6)</text>
</g>
<!-- Monitoramento -->
<g id="node4" class="node">
<title>Monitoramento</title>
<path fill="none" stroke="black" d="M572.5,-0.5C572.5,-0.5 725.5,-0.5 725.5,-0.5 731.5,-0.5 737.5,-6.5 737.5,-12.5 737.5,-12.5 737.5,-139.5 737.5,-139.5 737.5,-145.5 731.5,-151.5 725.5,-151.5 725.5,-151.5 572.5,-151.5 572.5,-151.5 566.5,-151.5 560.5,-145.5 560.5,-139.5 560.5,-139.5 560.5,-12.5 560.5,-12.5 560.5,-6.5 566.5,-0.5 572.5,-0.5"/>
<text text-anchor="middle" x="649" y="-136.3" font-family="Times,serif" font-size="14.00">Monitoramento</text>
<polyline fill="none" stroke="black" points="560.5,-128.5 737.5,-128.5 "/>
<text text-anchor="start" x="568.5" y="-113.3" font-family="Times,serif" font-size="14.00">updated_at :datetime(6)</text>
<text text-anchor="start" x="568.5" y="-98.3" font-family="Times,serif" font-size="14.00">temperatura :decimal(10,0)</text>
<text text-anchor="start" x="568.5" y="-83.3" font-family="Times,serif" font-size="14.00">ph :decimal(10,0)</text>
<text text-anchor="start" x="568.5" y="-68.3" font-family="Times,serif" font-size="14.00">turbidez :decimal(10,0)</text>
<text text-anchor="start" x="568.5" y="-53.3" font-family="Times,serif" font-size="14.00">condutividade :decimal(10,0)</text>
<text text-anchor="start" x="568.5" y="-38.3" font-family="Times,serif" font-size="14.00">localidade_id :bigint(20)</text>
<text text-anchor="start" x="568.5" y="-23.3" font-family="Times,serif" font-size="14.00">created_at :datetime(6)</text>
<text text-anchor="start" x="568.5" y="-8.3" font-family="Times,serif" font-size="14.00">id :bigint(20)</text>
</g>
<!-- Estado -->
<g id="node5" class="node">
<title>Estado</title>
<path fill="none" stroke="black" d="M768,-23C768,-23 890,-23 890,-23 896,-23 902,-29 902,-35 902,-35 902,-117 902,-117 902,-123 896,-129 890,-129 890,-129 768,-129 768,-129 762,-129 756,-123 756,-117 756,-117 756,-35 756,-35 756,-29 762,-23 768,-23"/>
<text text-anchor="middle" x="829" y="-113.8" font-family="Times,serif" font-size="14.00">Estado</text>
<polyline fill="none" stroke="black" points="756,-106 902,-106 "/>
<text text-anchor="start" x="764" y="-90.8" font-family="Times,serif" font-size="14.00">id :bigint(20)</text>
<text text-anchor="start" x="764" y="-75.8" font-family="Times,serif" font-size="14.00">uf :varchar(255)</text>
<text text-anchor="start" x="764" y="-60.8" font-family="Times,serif" font-size="14.00">nome :varchar(255)</text>
<text text-anchor="start" x="764" y="-45.8" font-family="Times,serif" font-size="14.00">created_at :datetime(6)</text>
<text text-anchor="start" x="764" y="-30.8" font-family="Times,serif" font-size="14.00">updated_at :datetime(6)</text>
</g>
<!-- Controlador -->
<g id="node6" class="node">
<title>Controlador</title>
<path fill="none" stroke="black" d="M932,-23C932,-23 1054,-23 1054,-23 1060,-23 1066,-29 1066,-35 1066,-35 1066,-117 1066,-117 1066,-123 1060,-129 1054,-129 1054,-129 932,-129 932,-129 926,-129 920,-123 920,-117 920,-117 920,-35 920,-35 920,-29 926,-23 932,-23"/>
<text text-anchor="middle" x="993" y="-113.8" font-family="Times,serif" font-size="14.00">Controlador</text>
<polyline fill="none" stroke="black" points="920,-106 1066,-106 "/>
<text text-anchor="start" x="928" y="-90.8" font-family="Times,serif" font-size="14.00">id :bigint(20)</text>
<text text-anchor="start" x="928" y="-75.8" font-family="Times,serif" font-size="14.00">mac :varchar(255)</text>
<text text-anchor="start" x="928" y="-60.8" font-family="Times,serif" font-size="14.00">flag_ativo :tinyint(1)</text>
<text text-anchor="start" x="928" y="-45.8" font-family="Times,serif" font-size="14.00">created_at :datetime(6)</text>
<text text-anchor="start" x="928" y="-30.8" font-family="Times,serif" font-size="14.00">updated_at :datetime(6)</text>
</g>
<!-- ApplicationRecord -->
<g id="node7" class="node">
<title>ApplicationRecord</title>
<ellipse fill="none" stroke="black" cx="1161" cy="-76" rx="77.19" ry="18"/>
<text text-anchor="middle" x="1161" y="-72.3" font-family="Times,serif" font-size="14.00">ApplicationRecord</text>
</g>
</g>
</svg>
